<?xml version="1.0" encoding="UTF-8"?>
<svg version="1.1" xmlns="http://www.w3.org/2000/svg" width="1080" height="478">
<path d="M0 0 C356.4 0 712.8 0 1080 0 C1080 157.74 1080 315.48 1080 478 C723.6 478 367.2 478 0 478 C0 320.26 0 162.52 0 0 Z " fill="#FEFEFE" transform="translate(0,0)"/>
<path d="M0 0 C2.71825129 -0.00967521 5.43573441 -0.04079163 8.15380859 -0.07226562 C24.82279736 -0.17471589 40.46953056 2.18230912 56.55615234 6.55273438 C58.26230713 7.00567871 58.26230713 7.00567871 60.00292969 7.46777344 C72.4740025 10.81089611 84.87918128 14.39268194 97.08349609 18.61352539 C104.86159594 21.0087248 114.04871279 21.17431886 121.93115234 19.36523438 C125.91619657 16.70853823 127.49110835 13.8186481 129.66162109 9.61523438 C131.27270701 6.98912113 132.40883278 5.70344068 135.11865234 4.24023438 C137.09865234 4.24023438 139.07865234 4.24023438 141.11865234 4.24023438 C141.11865234 43.84023437 141.11865234 83.44023438 141.11865234 124.24023438 C138.47865234 124.24023438 135.83865234 124.24023438 133.11865234 124.24023438 C132.74111816 122.89445312 132.74111816 122.89445312 132.35595703 121.52148438 C131.40808977 118.15746784 130.45301472 114.79566689 129.49316406 111.43505859 C129.08112867 109.98697488 128.67188704 108.53809293 128.265625 107.08837891 C126.12652163 99.46223887 124.00044869 92.19865097 120.11865234 85.24023438 C119.66490234 84.14710937 119.21115234 83.05398437 118.74365234 81.92773438 C113.17529504 68.83617093 104.79469401 57.86416994 95.16162109 47.49414062 C93.11865234 45.24023438 93.11865234 45.24023438 91.24755859 42.78320312 C88.73881378 39.78651895 85.93266653 37.38697628 82.86865234 34.99023438 C81.96143433 34.27951782 81.96143433 34.27951782 81.03588867 33.55444336 C74.19194132 28.33655572 66.80529528 24.08928502 59.11865234 20.24023438 C58.45333496 19.90064697 57.78801758 19.56105957 57.10253906 19.21118164 C50.60521924 16.09172558 43.88582305 14.57734539 36.86865234 13.05273438 C35.13228516 12.66311523 35.13228516 12.66311523 33.36083984 12.265625 C30.28261517 11.57782307 27.20313024 10.89939555 24.11865234 10.24023438 C23.32773193 10.05396484 22.53681152 9.86769531 21.72192383 9.67578125 C18.35024211 9.11167357 15.01617698 9.03979896 11.60693359 9.00195312 C10.52492172 8.98726234 10.52492172 8.98726234 9.42105103 8.97227478 C-12.52202196 8.72205759 -12.52202196 8.72205759 -33.88134766 13.24023438 C-35.39389172 13.6819743 -36.90693284 14.12201507 -38.42041016 14.56054688 C-55.67981071 19.73599889 -55.67981071 19.73599889 -69.88134766 30.24023438 C-68.31924526 34.28496378 -65.65787376 36.30399921 -62.38134766 39.05273438 C-52.15587868 48.03889322 -42.53184176 61.68221875 -39.88134766 75.24023438 C-39.85669102 77.40561517 -39.88991172 79.57192446 -39.95947266 81.73632812 C-39.98525391 83.01830078 -40.01103516 84.30027344 -40.03759766 85.62109375 C-40.09429737 88.29210128 -40.17693351 90.95857024 -40.27197266 93.62890625 C-40.42414814 103.17316255 -39.5573684 113.13857019 -32.80810547 120.50219727 C-30.89182176 122.17647608 -28.91064319 123.70661228 -26.88134766 125.24023438 C-24.38823268 127.8580051 -23.07049951 129.27083111 -22.38134766 132.80273438 C-23.06005613 136.11143817 -24.24310924 137.15741457 -26.88134766 139.24023438 C-28.85014089 140.30035381 -30.84570633 141.31494286 -32.88134766 142.24023438 C-32.73697266 142.92085937 -32.59259766 143.60148438 -32.44384766 144.30273438 C-31.81188856 147.6029652 -31.33820825 150.91167863 -30.88134766 154.24023438 C-32.86134766 155.56023437 -34.84134766 156.88023437 -36.88134766 158.24023438 C-36.53072266 158.98273438 -36.18009766 159.72523438 -35.81884766 160.49023438 C-34.80641603 163.46003382 -34.69222725 164.40463956 -35.88134766 167.24023438 C-36.38923828 167.75972656 -36.89712891 168.27921875 -37.42041016 168.81445312 C-39.61217383 172.45371847 -39.20334802 175.83106931 -39.06884766 179.99023438 C-39.04854492 181.17939453 -39.04854492 181.17939453 -39.02783203 182.39257812 C-38.99259989 184.34209002 -38.93879587 186.29125063 -38.88134766 188.24023438 C-46.90686535 193.36398461 -54.0588167 193.36863185 -63.40869141 191.55664062 C-64.55466797 191.28722656 -65.70064453 191.0178125 -66.88134766 190.74023438 C-74.97757195 188.84382148 -83.65005161 187.20014521 -91.38134766 190.92773438 C-100.314148 200.549794 -102.40652303 214.56091129 -102.12353516 227.08007812 C-101.52216144 240.36686479 -94.20410226 250.76942997 -84.80322266 259.77148438 C-79.21173291 264.4958447 -73.06667195 268.34773238 -66.88134766 272.24023438 C-46.38616397 285.28072035 -32.38858508 297.23885132 -26.30969238 321.87460327 C-25.5033863 326.32761185 -25.63884178 330.79132348 -25.68603516 335.30273438 C-25.68886505 336.33462891 -25.69169495 337.36652344 -25.6946106 338.4296875 C-25.70573513 341.69999169 -25.73082539 344.97001405 -25.75634766 348.24023438 C-25.76638744 350.46809498 -25.77551154 352.69595991 -25.78369141 354.92382812 C-25.80564911 360.36272509 -25.83904906 365.80145959 -25.88134766 371.24023438 C-24.85074219 371.54767578 -24.85074219 371.54767578 -23.79931641 371.86132812 C-22.44773437 372.26544922 -22.44773437 372.26544922 -21.06884766 372.67773438 C-20.17552734 372.94457031 -19.28220703 373.21140625 -18.36181641 373.48632812 C-16.52661711 374.04411311 -14.7010104 374.63368013 -12.88134766 375.24023438 C-7.42947495 375.53990137 -1.96575329 375.53571797 3.49365234 375.55273438 C4.28565033 375.55535278 5.07764832 375.55797119 5.89364624 375.56066895 C18.70395004 375.56521593 30.69514979 374.54706582 43.11865234 371.24023438 C43.80169434 371.06943359 44.48473633 370.89863281 45.18847656 370.72265625 C51.71301202 369.08871906 57.92483681 367.12168766 63.99755859 364.22460938 C66.23208182 363.18759307 68.49586469 362.34395493 70.80615234 361.49023438 C100.97622551 349.44088627 126.23777341 323.20596398 140.11865234 294.24023438 C140.82969974 292.81190663 141.54328171 291.38483808 142.25927734 289.95898438 C142.78134766 288.91484375 142.78134766 288.91484375 143.31396484 287.84960938 C144.91552734 284.64648438 146.51708984 281.44335937 148.11865234 278.24023438 C150.1181998 278.19769081 152.11906871 278.19942655 154.11865234 278.24023438 C154.44865234 278.57023437 154.77865234 278.90023438 155.11865234 279.24023438 C153.24479811 305.94265728 130.73080133 330.85547107 112.00537109 347.75585938 C107.91612781 351.275154 103.6405509 354.30674563 99.11865234 357.24023438 C97.77867187 358.14128906 97.77867187 358.14128906 96.41162109 359.06054688 C72.82545537 374.3312754 47.13768128 383.3519351 19.11865234 385.24023438 C17.45108174 385.44120415 15.78419704 385.64811363 14.11865234 385.86523438 C-14.00280372 388.4522167 -47.20669016 385.79808362 -72.44433594 372.4699707 C-74.88650033 371.23763429 -77.33618974 370.24422076 -79.89306641 369.27539062 C-85.13936608 367.22827896 -89.88342581 364.59114843 -94.69384766 361.67773438 C-95.56187012 361.15397217 -96.42989258 360.63020996 -97.32421875 360.09057617 C-104.84117012 355.45193788 -111.38124749 350.18886568 -117.88134766 344.24023438 C-118.73599609 343.51578125 -119.59064453 342.79132813 -120.47119141 342.04492188 C-130.75076679 333.24313695 -139.55072068 322.59483321 -146.88134766 311.24023438 C-147.51427734 310.26957031 -148.14720703 309.29890625 -148.79931641 308.29882812 C-161.34370661 288.52382229 -173.11838139 266.09175424 -172.88134766 242.24023438 C-172.37385986 241.98443604 -171.86637207 241.7286377 -171.34350586 241.46508789 C-134.33410398 222.69910969 -105.08801373 194.17008936 -85.88134766 157.24023438 C-85.5279834 156.56089844 -85.17461914 155.8815625 -84.81054688 155.18164062 C-70.2251529 126.69738252 -63.4204261 92.66651443 -71.88134766 61.24023438 C-71.89593018 61.9440625 -71.9105127 62.64789063 -71.92553711 63.37304688 C-72.23886057 76.94227794 -72.66622372 90.00488112 -75.88134766 103.24023438 C-76.29707031 105.10808594 -76.29707031 105.10808594 -76.72119141 107.01367188 C-78.78949555 115.62420846 -81.88746147 123.41207838 -85.88085938 131.27050781 C-86.56286947 132.61322559 -87.2360304 133.96046617 -87.90136719 135.31152344 C-100.90101338 161.69904604 -120.23292916 183.55675315 -145.88134766 198.24023438 C-147.27160156 199.04074219 -147.27160156 199.04074219 -148.68994141 199.85742188 C-165.57785236 209.31857373 -183.26149728 216.008607 -202.03295898 220.54858398 C-204.21371426 221.07811854 -206.38983272 221.6267818 -208.5637207 222.18383789 C-219.56870387 224.95165646 -230.5612533 226.57933171 -241.81884766 227.92773438 C-243.53574657 228.14110761 -245.25254416 228.35529782 -246.96923828 228.5703125 C-251.6045408 229.14588488 -256.24002717 229.71509984 -260.88134766 230.24023438 C-262.05907242 230.37446053 -262.05907242 230.37446053 -263.2605896 230.51139832 C-269.58409467 231.19163983 -275.88579114 231.49869112 -282.24072266 231.70507812 C-284.43213441 231.7837008 -286.62354048 231.86248215 -288.81494141 231.94140625 C-292.20370404 232.05984513 -295.59250886 232.17643522 -298.98144531 232.28979492 C-352.94072388 232.08115118 -352.94072388 232.08115118 -399.00634766 255.48632812 C-401.35041542 258.92917765 -402.42836278 262.26503951 -403.56884766 266.24023438 C-403.78089844 266.93890625 -403.99294922 267.63757813 -404.21142578 268.35742188 C-406.06887899 274.56846414 -407.008404 279.95206182 -407.01416016 286.44335938 C-407.01566071 287.14624588 -407.01716125 287.84913239 -407.01870728 288.57331848 C-407.02107001 290.87901422 -407.01477826 293.18455401 -407.00634766 295.49023438 C-407.00413208 296.28058075 -407.0019165 297.07092712 -406.99963379 297.88522339 C-406.98072045 303.67044915 -406.93488989 309.45523925 -406.88134766 315.24023438 C-406.87510376 316.03093323 -406.86885986 316.82163208 -406.86242676 317.6362915 C-406.82555591 322.15461403 -406.7657747 326.67157695 -406.67181396 331.18908691 C-406.64519682 332.57936125 -406.62471886 333.96976904 -406.61090088 335.36022949 C-406.50216664 345.24992488 -405.15791357 353.44323315 -400.25634766 362.11523438 C-394.90167046 366.90626134 -387.66327781 370.23981737 -380.46728516 370.52148438 C-379.62423828 370.55886719 -378.78119141 370.59625 -377.91259766 370.63476562 C-376.13396409 370.70538784 -374.3553181 370.77569764 -372.57666016 370.84570312 C-371.73619141 370.88308594 -370.89572266 370.92046875 -370.02978516 370.95898438 C-369.25812012 370.98927734 -368.48645508 371.01957031 -367.69140625 371.05078125 C-365.88134766 371.24023438 -365.88134766 371.24023438 -364.88134766 372.24023438 C-364.88134766 374.22023438 -364.88134766 376.20023437 -364.88134766 378.24023438 C-410.09134766 378.24023438 -455.30134766 378.24023438 -501.88134766 378.24023438 C-501.88134766 376.26023437 -501.88134766 374.28023438 -501.88134766 372.24023438 C-500.98996094 372.13533691 -500.98996094 372.13533691 -500.08056641 372.02832031 C-497.34539706 371.69759027 -494.61361886 371.34407991 -491.88134766 370.99023438 C-490.94677734 370.88066406 -490.01220703 370.77109375 -489.04931641 370.65820312 C-481.03887139 369.59387826 -473.64286604 367.15746947 -467.88134766 361.24023438 C-464.0127857 354.78532504 -461.78398749 348.9771446 -461.72363281 341.41259766 C-461.71337067 340.48037384 -461.70310852 339.54815002 -461.6925354 338.587677 C-461.6815834 337.08924759 -461.6815834 337.08924759 -461.67041016 335.56054688 C-461.64231251 333.41210214 -461.61364791 331.26366475 -461.58447266 329.11523438 C-461.54348487 325.75423624 -461.50657024 322.39337104 -461.47998047 319.03222656 C-461.24282282 291.39927107 -457.27428519 267.95191741 -437.44384766 247.36523438 C-432.59847235 242.71556364 -427.54721628 238.82771419 -421.88134766 235.24023438 C-420.71539062 234.45712891 -420.71539062 234.45712891 -419.52587891 233.65820312 C-413.35089106 229.67921422 -406.97271656 227.20093816 -400.00552368 224.93795776 C-398.60423229 224.47767869 -397.20596596 224.00807161 -395.81112671 223.52859497 C-381.29528718 218.55083884 -366.98766786 216.48450766 -351.75634766 214.99023438 C-349.94734985 214.8029628 -349.94734985 214.8029628 -348.10180664 214.61190796 C-328.45376341 212.58180131 -308.84934489 211.47858054 -289.11230469 210.85205078 C-273.82144298 210.36557119 -258.71479368 209.40319244 -243.50976562 207.65673828 C-241.04397875 207.3736921 -238.57675239 207.10297076 -236.10839844 206.84326172 C-213.5822645 204.46010798 -191.85575557 200.00799597 -170.88134766 191.24023438 C-169.20869251 190.58395465 -167.53550995 189.92901763 -165.86181641 189.27539062 C-151.32414344 183.44613834 -138.0093034 176.1661661 -125.88134766 166.24023438 C-124.94806641 165.47839844 -124.01478516 164.7165625 -123.05322266 163.93164062 C-116.88873494 158.62753386 -111.80085553 152.69866522 -106.88134766 146.24023438 C-106.47384277 145.71300781 -106.06633789 145.18578125 -105.64648438 144.64257812 C-95.21661633 131.06248061 -88.48861283 116.3477286 -82.88134766 100.24023438 C-82.51009766 99.21929687 -82.13884766 98.19835937 -81.75634766 97.14648438 C-80.85872076 94.16508074 -80.48319628 91.46549893 -80.25634766 88.36523438 C-80.18158203 87.3984375 -80.10681641 86.43164062 -80.02978516 85.43554688 C-79.98080078 84.71109375 -79.93181641 83.98664063 -79.88134766 83.24023438 C-80.28224609 84.46355469 -80.68314453 85.686875 -81.09619141 86.94726562 C-95.23206572 129.19843407 -119.98604979 158.86824722 -159.60205078 179.14111328 C-164.21650726 181.36629356 -168.9418785 182.89380587 -173.88134766 184.24023438 C-175.8821485 184.90449369 -177.8819953 185.5716279 -179.88134766 186.24023438 C-192.03542927 190.25189448 -203.86933143 192.51621645 -216.56884766 193.99023438 C-218.25194186 194.19864998 -219.93488581 194.40828266 -221.61767578 194.61914062 C-223.27183713 194.82207131 -224.92613027 195.02393126 -226.58056641 195.22460938 C-227.30805588 195.31313171 -228.03554535 195.40165405 -228.78507996 195.49285889 C-240.92947782 196.89831794 -253.04688903 197.39602862 -265.26028442 197.50059509 C-267.77326971 197.52216612 -270.28615229 197.54914003 -272.79907227 197.57727051 C-278.15978732 197.63630016 -283.52055771 197.68853464 -288.88134766 197.74023438 C-317.82070859 198.00712701 -317.82070859 198.00712701 -346.75244141 198.68945312 C-348.52294861 198.74153931 -348.52294861 198.74153931 -350.32922363 198.79467773 C-359.79808083 199.12308139 -369.05739091 200.14938746 -378.38378906 201.79882812 C-380.99799383 202.26084985 -383.61675673 202.68777833 -386.23681641 203.11523438 C-409.85562838 207.12030245 -430.46396103 215.78146407 -448.88134766 231.24023438 C-449.75146484 231.93503906 -450.62158203 232.62984375 -451.51806641 233.34570312 C-461.3760254 241.59419943 -470.17372113 253.30489906 -475.06103516 265.24023438 C-475.64625252 266.66705005 -476.25874819 268.082803 -476.88916016 269.49023438 C-484.68853993 287.51546762 -482.17490003 308.11413851 -480.88134766 327.24023438 C-481.54134766 327.24023438 -482.20134766 327.24023438 -482.88134766 327.24023438 C-487.88301433 315.76432912 -490.41966114 305.03533763 -490.25634766 292.49023438 C-490.24112061 290.78407959 -490.24112061 290.78407959 -490.22558594 289.04345703 C-489.69474293 260.08576505 -478.24928276 236.95795162 -457.69482422 216.94384766 C-446.65178447 206.56981274 -433.05637432 199.38628366 -418.88134766 194.24023438 C-418.05892578 193.91539062 -417.23650391 193.59054688 -416.38916016 193.25585938 C-376.31522141 177.79706995 -329.82921322 179.65354852 -287.61499023 178.66204834 C-281.04878166 178.50709179 -274.482963 178.34217442 -267.91732597 178.16459656 C-264.9114928 178.08707878 -261.90559903 178.02340365 -258.89942932 177.96057129 C-245.08603289 177.62088416 -231.55418858 176.20277619 -217.88134766 174.24023438 C-216.87089952 174.09563782 -215.86045139 173.95104126 -214.81938362 173.80206299 C-200.30023562 171.69931828 -186.94064414 167.99818263 -173.17358398 162.91113281 C-170.88134766 162.24023438 -170.88134766 162.24023438 -166.88134766 162.24023438 C-166.88134766 161.58023438 -166.88134766 160.92023438 -166.88134766 160.24023438 C-165.85396484 159.74394531 -164.82658203 159.24765625 -163.76806641 158.73632812 C-143.26449431 148.73525162 -125.82619499 136.09720138 -113.88134766 116.24023438 C-115.20585938 117.61695313 -115.20585938 117.61695313 -116.55712891 119.02148438 C-132.22866991 135.12785793 -151.96804087 150.27081164 -174.88134766 153.24023438 C-175.43986602 147.23616191 -173.85386472 142.39522976 -171.95166016 136.71679688 C-171.13761024 134.07262013 -170.50218032 131.55535053 -169.94384766 128.85742188 C-168.96107738 124.29517745 -167.48483798 120.06851028 -165.75634766 115.74023438 C-165.44995361 114.96760254 -165.14355957 114.1949707 -164.82788086 113.39892578 C-157.27658071 94.63231329 -148.21694916 77.57722947 -134.88134766 62.24023438 C-133.85781425 61.0226582 -132.83577321 59.8038265 -131.81494141 58.58398438 C-125.31627437 50.87366857 -118.64770422 43.71400852 -110.88134766 37.24023438 C-109.88748047 36.41007812 -108.89361328 35.57992187 -107.86962891 34.72460938 C-99.7810777 28.15823929 -91.07290355 23.09931873 -81.88134766 18.24023438 C-80.55683594 17.51707031 -80.55683594 17.51707031 -79.20556641 16.77929688 C-71.75103467 12.8453087 -63.80545665 10.06672095 -55.88134766 7.24023438 C-54.91841797 6.89476562 -53.95548828 6.54929687 -52.96337891 6.19335938 C-48.95702984 4.95438704 -44.91867445 4.04940329 -40.81884766 3.17773438 C-39.66352539 2.91766602 -39.66352539 2.91766602 -38.48486328 2.65234375 C-25.81752831 -0.05098775 -12.89441506 0.02760624 0 0 Z " fill="#040404" transform="translate(713.88134765625,42.759765625)"/>
<path d="M0 0 C45.87 0 91.74 0 139 0 C138.67 1.65 138.34 3.3 138 5 C132.22452067 8.39383837 126.86212805 8.44537586 120.31640625 8.52734375 C112.93842923 8.75415317 107.13270638 11.02146092 101.69122696 16.15432072 C95.33073811 23.09568506 95.41784357 31.573135 95.45410156 40.50610352 C95.44535132 41.84732758 95.43486051 43.18854122 95.42277527 44.52973938 C95.39507163 48.14487778 95.39150708 51.75967292 95.39249516 55.37490201 C95.38935249 59.16260418 95.3637063 62.9501548 95.34051514 66.73777771 C95.30005477 73.89858464 95.27963797 81.05930073 95.26654124 88.22020429 C95.2506373 96.37753365 95.21220751 104.53470917 95.17194796 112.69194901 C95.0896855 129.46125502 95.03550828 146.2305284 95 163 C94.25077931 163.25306003 93.50155863 163.50612005 92.72963428 163.76684856 C89.30385785 164.92759244 85.88106157 166.09689539 82.45825195 167.26635742 C81.27960823 167.66429253 80.10096451 168.06222763 78.88660431 168.47222137 C70.64595394 171.29702249 63.42217564 174.41015169 56.1875 179.3125 C55.20378418 179.95276123 54.22006836 180.59302246 53.20654297 181.25268555 C45.36253326 186.47575568 38.55540348 192.26329715 32 199 C30.65615234 200.24136719 30.65615234 200.24136719 29.28515625 201.5078125 C22.76268135 207.60853338 18.33270919 214.22378954 14 222 C13.65694824 222.60005859 13.31389648 223.20011719 12.96044922 223.81835938 C7.94431339 232.60527751 4.09033645 241.35755599 1 251 C0.67 251 0.34 251 0 251 C-1.56165473 234.21221168 10.33034555 216.16604874 20.08422279 203.19285583 C22.11866916 200.86416773 24.24247116 199.1108936 26.69889832 197.23718262 C34.72040903 190.92744053 41.01842495 185.01229535 42.68765259 174.58691406 C43.52359787 166.46956418 43.2555991 158.28784988 42.99234796 150.14639854 C42.8794253 146.02817595 42.8756176 141.90969396 42.85868835 137.79016113 C42.81574564 130.88614615 42.7048603 123.98620347 42.54321289 117.08398438 C42.31595175 107.37880426 42.20833244 97.67505009 42.12660086 87.96769619 C42.01121068 74.9301579 41.85829052 61.89186327 41.5737896 48.85682678 C41.54424023 47.4585663 41.51755865 46.06024146 41.49411774 44.66186523 C41.32131985 26.86909126 41.32131985 26.86909126 32.3125 12.25 C26.33690089 8.22324639 17.99439965 8.54928979 11 8 C8.81237063 7.79302956 6.6248464 7.58493986 4.4375 7.375 C2.95854314 7.24754161 1.47946445 7.12142473 0 7 C0 4.69 0 2.38 0 0 Z " fill="#030303" transform="translate(211,50)"/>
<path d="M0 0 C1.2825769 -0.00249756 2.56515381 -0.00499512 3.88659668 -0.00756836 C7.48302012 -0.01338085 11.07935721 -0.01202971 14.67578125 -0.0078125 C15.72758072 -0.00979645 16.77938019 -0.0117804 17.86305237 -0.01382446 C18.82774948 -0.01071259 19.79244659 -0.00760071 20.78637695 -0.00439453 C22.03376396 -0.00320114 22.03376396 -0.00320114 23.30635071 -0.00198364 C25.84568614 0.13343586 28.20893709 0.5692047 30.6875 1.125 C30.73004356 3.12454746 30.72830783 5.12541636 30.6875 7.125 C29.07906921 8.73343079 27.31704409 8.2718017 25.09375 8.30078125 C23.670625 8.33655273 23.670625 8.33655273 22.21875 8.37304688 C20.22937092 8.41534682 18.23972978 8.4469525 16.25 8.46679688 C7.4630478 8.7207209 -0.26521035 11.07077097 -6.76331615 17.24800301 C-12.22988231 23.8713152 -11.75514438 33.62646005 -11.74487305 41.73486328 C-11.7550647 42.95551987 -11.76525635 44.17617645 -11.77575684 45.43382263 C-11.80060699 48.74936946 -11.81258147 52.06447476 -11.81861091 55.38007593 C-11.82805142 58.8567945 -11.85425893 62.33338779 -11.87861633 65.81002808 C-11.92213 72.37933188 -11.95076951 78.94861116 -11.97393972 85.51801479 C-12.00107301 93.00306212 -12.04497916 100.48798246 -12.09022844 107.97293878 C-12.18285769 123.35689371 -12.2546373 138.74087261 -12.3125 154.125 C-13.11291718 154.20966019 -13.91333435 154.29432037 -14.73800659 154.38154602 C-18.40618647 154.77017171 -22.07418724 155.16046401 -25.7421875 155.55078125 C-27.00119873 155.68391724 -28.26020996 155.81705322 -29.55737305 155.95422363 C-37.33139141 156.78289389 -45.07962086 157.69354026 -52.8203125 158.79296875 C-55.7673194 159.07316516 -58.57627665 159.15857393 -61.53076172 159.14575195 C-62.42737518 159.14275589 -63.32398865 159.13975983 -64.24777222 159.13667297 C-64.92913239 159.13282089 -65.61049255 159.12896881 -66.3125 159.125 C-66.31673194 158.50215244 -66.32096388 157.87930489 -66.32532406 157.23758316 C-66.42892195 142.03672153 -66.53760131 126.83590529 -66.65183926 111.63512039 C-66.70696455 104.28394315 -66.7604109 96.93276107 -66.80981445 89.58154297 C-66.85291154 83.16937255 -66.89925079 76.75723487 -66.94937855 70.34511542 C-66.97577576 66.95437426 -67.00062058 63.56363873 -67.02157402 60.17285919 C-67.04586299 56.37463423 -67.07588168 52.57649314 -67.10717773 48.77832031 C-67.11581093 47.11782402 -67.11581093 47.11782402 -67.12461853 45.42378235 C-66.52368179 29.61691079 -66.52368179 29.61691079 -73.3125 16.125 C-81.20736657 10.24520413 -90.26983277 8.94805 -99.8125 8 C-100.63492187 7.91363281 -101.45734375 7.82726563 -102.3046875 7.73828125 C-104.30676526 7.52876148 -106.30956397 7.32614956 -108.3125 7.125 C-108.3125 5.145 -108.3125 3.165 -108.3125 1.125 C-72.20956406 0.55523809 -36.108032 0.02482815 0 0 Z " fill="#030303" transform="translate(530.3125,48.875)"/>
<path d="M0 0 C0.00808685 1.10087952 0.01617371 2.20175903 0.02450562 3.33599854 C0.10225992 13.75139022 0.19007118 24.16665598 0.28752708 34.58188248 C0.33730271 39.93542175 0.38363328 45.28894306 0.421875 50.64257812 C0.45896583 55.81684742 0.50538788 60.9909592 0.55806351 66.16509247 C0.57648181 68.1312354 0.5916352 70.09741193 0.60334396 72.06360626 C0.42018106 93.55899684 0.42018106 93.55899684 9 112.75 C16.83293511 118.62470133 25.89705769 119.47214321 35.38769531 119.67285156 C40.81022566 119.81022566 40.81022566 119.81022566 43 122 C43 123.32 43 124.64 43 126 C31.54447004 126.73340589 20.10042233 127.27530758 8.625 127.5625 C7.80848969 127.58334656 6.99197937 127.60419312 6.15072632 127.62567139 C-10.79375164 128.04267343 -27.73853815 128.10893551 -44.6875 128.125 C-46.56571442 128.12888229 -46.56571442 128.12888229 -48.48187256 128.13284302 C-60.73217196 128.15283785 -72.9673072 128.10738304 -85.20703125 127.5546875 C-86.09154465 127.51594513 -86.97605804 127.47720276 -87.88737488 127.43728638 C-93.87300665 127.12699335 -93.87300665 127.12699335 -95 126 C-95.04080783 124.00041636 -95.04254356 121.99954746 -95 120 C-94.35562988 119.96559814 -93.71125977 119.93119629 -93.04736328 119.89575195 C-90.07145395 119.72391117 -87.09873928 119.51840229 -84.125 119.3125 C-82.60519531 119.23225586 -82.60519531 119.23225586 -81.0546875 119.15039062 C-72.76368756 118.53919512 -64.81159013 116.46386407 -59 110.125 C-55.25701341 104.27658345 -54.70548391 98.43736163 -54.72875977 91.63378906 C-54.72353302 90.8280394 -54.71830627 90.02228973 -54.71292114 89.19212341 C-54.70273325 87.45487652 -54.6969099 85.71759955 -54.69503975 83.98032379 C-54.6913607 81.23159144 -54.67459562 78.48321487 -54.65428162 75.73455811 C-54.59899205 67.92418003 -54.56809553 60.11375204 -54.54370117 52.30322266 C-54.52785297 47.5164075 -54.49767438 42.72985037 -54.45893669 37.94316864 C-54.44727425 36.12030518 -54.44135623 34.29739569 -54.44125557 32.47449493 C-54.44106413 29.93226497 -54.42284676 27.39075177 -54.40063477 24.84863281 C-54.40521194 24.09430466 -54.40978912 23.3399765 -54.414505 22.56278992 C-54.34361954 17.47564779 -54.34361954 17.47564779 -52.6000824 15.06219482 C-50.67728558 13.78577004 -48.93809581 13.13898903 -46.71875 12.5 C-45.88239014 12.25435303 -45.04603027 12.00870605 -44.18432617 11.75561523 C-42.85558472 11.38158569 -42.85558472 11.38158569 -41.5 11 C-40.13742065 10.60373413 -40.13742065 10.60373413 -38.74731445 10.19946289 C-33.42410062 8.65914692 -28.08183837 7.19892657 -22.72265625 5.7890625 C-20.51517777 5.14930547 -18.35648851 4.45565603 -16.18359375 3.7109375 C-15.51239502 3.48092041 -14.84119629 3.25090332 -14.1496582 3.01391602 C-12.22449353 2.34696821 -10.30352358 1.66794832 -8.3828125 0.98828125 C-5.30730906 0.08977967 -3.15129691 -0.08505207 0 0 Z " fill="#030303" transform="translate(518,294)"/>
<path d="M0 0 C0.33 0 0.66 0 1 0 C1.35270826 24.79035228 -15.02460629 52.11205915 -31 70 C-31.99 70.495 -31.99 70.495 -33 71 C-35 70.125 -35 70.125 -37 69 C-37.66 68.67 -38.32 68.34 -39 68 C-38.31035156 67.28457031 -37.62070312 66.56914062 -36.91015625 65.83203125 C-26.30835353 54.66664603 -18.48873894 42.80217423 -11.92700195 28.92700195 C-10.95140239 26.8989779 -9.92639053 24.90036591 -8.8984375 22.8984375 C-7.26764453 19.64988526 -6.01860901 16.4148333 -4.9375 12.9375 C-3.5115433 8.49054412 -1.93159917 4.24951818 0 0 Z " fill="#EBEBEB" transform="translate(634,125)"/>
<path d="M0 0 C0 3.98887814 -1.88698188 5.92990182 -4.25 8.9375 C-4.69674072 9.50944092 -5.14348145 10.08138184 -5.60375977 10.6706543 C-13.54436874 20.62414398 -22.41239541 28.91380795 -33 36 C-33.495 34.515 -33.495 34.515 -34 33 C-35.49985609 31.33289654 -35.49985609 31.33289654 -37 30 C-34.08772149 27.74315308 -31.08192638 25.79222021 -27.9375 23.875 C-17.40208894 17.18718262 -8.62922357 8.92966075 0 0 Z " fill="#E7E7E7" transform="translate(600,158)"/>
<path d="M0 0 C1.32 0.66 2.64 1.32 4 2 C3.5153125 2.825 3.030625 3.65 2.53125 4.5 C-4.66268888 16.85031954 -11.60294483 29.34598656 -16 43 C-16.33 43 -16.66 43 -17 43 C-18.40485772 27.89777948 -8.51292145 11.787122 0 0 Z " fill="#202020" transform="translate(228,258)"/>
<path d="M0 0 C0.33 0 0.66 0 1 0 C1.11581922 8.14043637 -0.75139686 15.00812028 -3.4375 22.625 C-3.90651733 23.95869629 -3.90651733 23.95869629 -4.38500977 25.31933594 C-6.71927052 31.71927052 -6.71927052 31.71927052 -9 34 C-10.32 34 -11.64 34 -13 34 C-11.25056604 28.51313896 -9.29085346 23.16636522 -7.11328125 17.8359375 C-5.29607006 13.2068311 -3.68369955 8.50512967 -2.05078125 3.80859375 C-1 1 -1 1 0 0 Z " fill="#E8E8E8" transform="translate(634,125)"/>
<path d="M0 0 C0 4.20726187 -2.31118779 6.40020125 -4.8125 9.5625 C-5.49022461 10.44711914 -5.49022461 10.44711914 -6.18164062 11.34960938 C-8.30995289 14.08068453 -10.09710339 16.0647356 -13 18 C-16 18 -16 18 -18 17 C-17.20335937 16.27554688 -16.40671875 15.55109375 -15.5859375 14.8046875 C-10.28310293 9.97048718 -5.00586872 5.14492063 0 0 Z " fill="#E5E5E5" transform="translate(600,158)"/>
<path d="M0 0 C0.33 0 0.66 0 1 0 C1.28788454 4.14408265 1.57259951 8.2883678 1.85449219 12.43286133 C1.9506451 13.84014638 2.04763511 15.24737452 2.14550781 16.65454102 C2.28675666 18.68751547 2.42490504 20.72068161 2.5625 22.75390625 C2.64628906 23.97408447 2.73007813 25.1942627 2.81640625 26.45141602 C2.99869255 29.97472903 3.03165291 33.47267844 3 37 C2.34 37 1.68 37 1 37 C0.34 35.02 -0.32 33.04 -1 31 C-0.34 31 0.32 31 1 31 C0.9278125 30.43796875 0.855625 29.8759375 0.78125 29.296875 C-0.29529943 19.5481218 -0.08631961 9.79248016 0 0 Z " fill="#373737" transform="translate(230,333)"/>
<path d="M0 0 C1.32 0.66 2.64 1.32 4 2 C2.02 4.97 0.04 7.94 -2 11 C-2.66 10.34 -3.32 9.68 -4 9 C-3.63910592 5.51135721 -1.8589578 2.90967307 0 0 Z " fill="#1C1C1C" transform="translate(228,258)"/>
<path d="M0 0 C0.66 0.33 1.32 0.66 2 1 C0.515 2.485 0.515 2.485 -1 4 C-0.34 5.32 0.32 6.64 1 8 C-1.475 9.485 -1.475 9.485 -4 11 C-4 10.01 -4 9.02 -4 8 C-5.43750191 6.31201173 -5.43750191 6.31201173 -7 5 C-4.702779 3.25728062 -2.40133271 1.60088848 0 0 Z " fill="#E0E0E0" transform="translate(570,183)"/>
<path d="M0 0 C0.66 0.33 1.32 0.66 2 1 C0.4169423 5.2742558 -2.50568404 7.26531794 -6 10 C-6.66 9.67 -7.32 9.34 -8 9 C-8 8.34 -8 7.68 -8 7 C-7.34 7 -6.68 7 -6 7 C-5.7525 6.401875 -5.505 5.80375 -5.25 5.1875 C-3.83629988 2.71352479 -2.34944617 1.56629745 0 0 Z " fill="#F3F3F3" transform="translate(585,174)"/>
<path d="M0 0 C0.33 0 0.66 0 1 0 C0.88617347 1.95901454 0.75858875 3.9172338 0.625 5.875 C0.55539062 6.96554688 0.48578125 8.05609375 0.4140625 9.1796875 C0 12 0 12 -2 14 C-2.99 14 -3.98 14 -5 14 C-3.45730076 9.27934033 -1.92205381 4.58335908 0 0 Z " fill="#BDBDBD" transform="translate(634,125)"/>
<path d="M0 0 C0.99 0 1.98 0 3 0 C3.625 2.375 3.625 2.375 4 5 C3.34 5.66 2.68 6.32 2 7 C0.68 7 -0.64 7 -2 7 C-1.34 4.69 -0.68 2.38 0 0 Z " fill="#E1E1E1" transform="translate(623,152)"/>
<path d="M0 0 C4.95 0 9.9 0 15 0 C14.67 0.99 14.34 1.98 14 3 C9.38 2.34 4.76 1.68 0 1 C0 0.67 0 0.34 0 0 Z " fill="#454545" transform="translate(333,414)"/>
<path d="M0 0 C0 3.39593478 -0.52165948 4.06619881 -2.5 6.6875 C-2.9640625 7.31011719 -3.428125 7.93273437 -3.90625 8.57421875 C-4.2671875 9.04472656 -4.628125 9.51523438 -5 10 C-5.99 9.34 -6.98 8.68 -8 8 C-5.36 5.36 -2.72 2.72 0 0 Z " fill="#C0C0C0" transform="translate(600,158)"/>
<path d="M0 0 C2.4294516 3.6441774 2.16179575 5.71241272 2 10 C1.34 10 0.68 10 0 10 C-0.66 8.02 -1.32 6.04 -2 4 C-1.34 4 -0.68 4 0 4 C0 2.68 0 1.36 0 0 Z " fill="#464646" transform="translate(231,360)"/>
<path d="M0 0 C0.66 0.66 1.32 1.32 2 2 C-0.66666667 4.66666667 -3.33333333 7.33333333 -6 10 C-6.66 9.67 -7.32 9.34 -8 9 C-5.36 6.03 -2.72 3.06 0 0 Z " fill="#2B2B2B" transform="translate(252,264)"/>
<path d="M0 0 C0 3 0 3 -2.25 5.5 C-4.43541108 7.48673735 -6.58854412 9.30304957 -9 11 C-9 8 -9 8 -7.28515625 6.2109375 C-6.18494141 5.30214844 -6.18494141 5.30214844 -5.0625 4.375 C-4.33160156 3.76398438 -3.60070312 3.15296875 -2.84765625 2.5234375 C-2.23792969 2.02070313 -1.62820313 1.51796875 -1 1 C-0.67 0.67 -0.34 0.34 0 0 Z " fill="#222222" transform="translate(585,178)"/>
<path d="M0 0 C0.66 0.33 1.32 0.66 2 1 C0.63016497 4.16115776 0.0109362 4.9927092 -3 7 C-3.66 5.68 -4.32 4.36 -5 3 C-3.68 3 -2.36 3 -1 3 C-0.67 2.01 -0.34 1.02 0 0 Z " fill="#121212" transform="translate(607,203)"/>
<path d="M0 0 C0.66 0.33 1.32 0.66 2 1 C-0.97 3.97 -3.94 6.94 -7 10 C-7.66 9.34 -8.32 8.68 -9 8 C-6.03 5.36 -3.06 2.72 0 0 Z " fill="#272727" transform="translate(603,80)"/>
<path d="M0 0 C2 3 2 3 1.75 6.0625 C1 9 1 9 -1 11 C-1.14285714 3.57142857 -1.14285714 3.57142857 0 0 Z " fill="#404040" transform="translate(212,290)"/>
</svg>
